# xmcd
#
# Track frame offsets:
#	150
#	10125
#	22923
#	35682
#	48903
#	62526
#	72660
#	84522
#	97486
#	112655
#	130923
#	145058
#
# Disc length: 2125 seconds
#
# Revision: 2
# Processed by: cddbd v1.5.2PL0 Copyright (c) Steve Scherf et al.
# Submitted via: audiograbber 1.83.01
#
DISCID=9e084b0c
DTITLE=Various Artist - Coal Miner's Daughter - A Tribute to Loretta Lynn
DYEAR=2010
DGENRE=Country
TTITLE0=Gretchen Wilson - Don't Come Home a Drinkin' (with Lovin' on Your Mind)
TTITLE1=Lee Ann Womack - I'm a Honky Tonk Girl
TTITLE2=The White Stripes - Rated X
TTITLE3=Carrie Underwood - You're Lookin' at Country
TTITLE4=Alan Jackson and Martina McBride - Louisiana Woman, Mississippi Man
TTITLE5=Paramore - You Ain't Woman Enough (to Take My Man)
TTITLE6=Faith Hill - Love Is the Foundation
TTITLE7=Steve Earle and Allison Moorer - After the Fire Is Gone
TTITLE8=Reba McEntire (feat. The Time Jumpers) - If You're Not Gone Too Long
TTITLE9=Kid Rock - I Know How
TTITLE10=Lucinda Williams - Somebody Somewhere (Don't Know What He's Missin' To
TTITLE10=night)
TTITLE11=Loretta Lynn, Sheryl Crow and Miranda Lambert - Coal Miner's Daughter
EXTD=
EXTT0=
EXTT1=
EXTT2=
EXTT3=
EXTT4=
EXTT5=
EXTT6=
EXTT7=
EXTT8=
EXTT9=
EXTT10=
EXTT11=
PLAYORDER=
